<svg width="25" height="24" viewBox="0 0 25 24" fill="none" xmlns="http://www.w3.org/2000/svg">
<path d="M12.7499 10.9916C12.1908 10.9916 11.7416 11.4408 11.7416 12C11.7416 12.5591 12.1908 13.0083 12.7499 13.0083C13.3091 13.0083 13.7583 12.5591 13.7583 12C13.7583 11.4408 13.3091 10.9916 12.7499 10.9916ZM12.7499 2.83331C7.68992 2.83331 3.58325 6.93998 3.58325 12C3.58325 17.06 7.68992 21.1666 12.7499 21.1666C17.8099 21.1666 21.9166 17.06 21.9166 12C21.9166 6.93998 17.8099 2.83331 12.7499 2.83331ZM14.8344 13.842C14.7847 13.9489 14.6988 14.0347 14.5919 14.0845L7.99515 17.1533C7.74144 17.2713 7.47858 17.0085 7.5966 16.7548L10.6654 10.158C10.7152 10.0511 10.801 9.96522 10.9079 9.9155L17.5047 6.84666C17.7584 6.72864 18.0213 6.9915 17.9032 7.24521L14.8344 13.842Z" fill="#7FB4FE"/>
</svg>
